<mxfile host="app.diagrams.net" agent="Mozilla/5.0 (Windows NT 10.0; Win64; x64) AppleWebKit/537.36 (KHTML, like Gecko) Chrome/134.0.0.0 Safari/537.36" version="25.0.3">
  <diagram name="第 1 页" id="8up1TFRLoGJ1ylDCnul8">
    <mxGraphModel dx="909" dy="539" grid="1" gridSize="10" guides="1" tooltips="1" connect="1" arrows="1" fold="1" page="1" pageScale="1" pageWidth="827" pageHeight="1169" math="0" shadow="0">
      <root>
        <mxCell id="0" />
        <mxCell id="1" parent="0" />
        <mxCell id="2HdnOW5wauHoBpMCBvDK-2" value="" style="rounded=0;whiteSpace=wrap;html=1;" vertex="1" parent="1">
          <mxGeometry x="270" y="30" width="450" height="60" as="geometry" />
        </mxCell>
        <mxCell id="2HdnOW5wauHoBpMCBvDK-3" value="表现层" style="rounded=0;whiteSpace=wrap;html=1;" vertex="1" parent="1">
          <mxGeometry x="120" y="30" width="120" height="60" as="geometry" />
        </mxCell>
        <mxCell id="2HdnOW5wauHoBpMCBvDK-4" value="PC管理后台" style="rounded=0;whiteSpace=wrap;html=1;" vertex="1" parent="1">
          <mxGeometry x="359" y="35" width="110" height="50" as="geometry" />
        </mxCell>
        <mxCell id="2HdnOW5wauHoBpMCBvDK-5" value="微信小程序" style="rounded=0;whiteSpace=wrap;html=1;" vertex="1" parent="1">
          <mxGeometry x="530" y="35" width="110" height="50" as="geometry" />
        </mxCell>
        <mxCell id="2HdnOW5wauHoBpMCBvDK-6" value="应用服务" style="rounded=0;whiteSpace=wrap;html=1;" vertex="1" parent="1">
          <mxGeometry x="120" y="120" width="120" height="400" as="geometry" />
        </mxCell>
        <mxCell id="2HdnOW5wauHoBpMCBvDK-7" value="技术架构" style="rounded=0;whiteSpace=wrap;html=1;" vertex="1" parent="1">
          <mxGeometry x="120" y="560" width="120" height="420" as="geometry" />
        </mxCell>
        <mxCell id="2HdnOW5wauHoBpMCBvDK-8" value="数据存储" style="rounded=0;whiteSpace=wrap;html=1;" vertex="1" parent="1">
          <mxGeometry x="120" y="1010" width="120" height="60" as="geometry" />
        </mxCell>
        <mxCell id="2HdnOW5wauHoBpMCBvDK-9" value="" style="rounded=0;whiteSpace=wrap;html=1;" vertex="1" parent="1">
          <mxGeometry x="270" y="120" width="360" height="190" as="geometry" />
        </mxCell>
        <mxCell id="2HdnOW5wauHoBpMCBvDK-10" value="管理后台" style="rounded=0;whiteSpace=wrap;html=1;" vertex="1" parent="1">
          <mxGeometry x="650" y="120" width="70" height="190" as="geometry" />
        </mxCell>
        <mxCell id="2HdnOW5wauHoBpMCBvDK-11" value="" style="rounded=0;whiteSpace=wrap;html=1;" vertex="1" parent="1">
          <mxGeometry x="270" y="330" width="360" height="190" as="geometry" />
        </mxCell>
        <mxCell id="2HdnOW5wauHoBpMCBvDK-12" value="小程序" style="rounded=0;whiteSpace=wrap;html=1;" vertex="1" parent="1">
          <mxGeometry x="650" y="330" width="70" height="190" as="geometry" />
        </mxCell>
        <mxCell id="2HdnOW5wauHoBpMCBvDK-13" value="" style="rounded=0;whiteSpace=wrap;html=1;" vertex="1" parent="1">
          <mxGeometry x="270" y="560" width="360" height="160" as="geometry" />
        </mxCell>
        <mxCell id="2HdnOW5wauHoBpMCBvDK-14" value="后端" style="rounded=0;whiteSpace=wrap;html=1;" vertex="1" parent="1">
          <mxGeometry x="650" y="560" width="70" height="160" as="geometry" />
        </mxCell>
        <mxCell id="2HdnOW5wauHoBpMCBvDK-16" value="管理后台" style="rounded=0;whiteSpace=wrap;html=1;" vertex="1" parent="1">
          <mxGeometry x="650" y="820" width="70" height="160" as="geometry" />
        </mxCell>
        <mxCell id="2HdnOW5wauHoBpMCBvDK-17" value="" style="rounded=0;whiteSpace=wrap;html=1;" vertex="1" parent="1">
          <mxGeometry x="270" y="1010" width="450" height="60" as="geometry" />
        </mxCell>
        <mxCell id="2HdnOW5wauHoBpMCBvDK-18" value="MySQL" style="rounded=0;whiteSpace=wrap;html=1;" vertex="1" parent="1">
          <mxGeometry x="304" y="1015" width="110" height="50" as="geometry" />
        </mxCell>
        <mxCell id="2HdnOW5wauHoBpMCBvDK-19" value="Redis" style="rounded=0;whiteSpace=wrap;html=1;" vertex="1" parent="1">
          <mxGeometry x="440" y="1015" width="110" height="50" as="geometry" />
        </mxCell>
        <mxCell id="2HdnOW5wauHoBpMCBvDK-20" value="Minio" style="rounded=0;whiteSpace=wrap;html=1;" vertex="1" parent="1">
          <mxGeometry x="580" y="1015" width="110" height="50" as="geometry" />
        </mxCell>
        <mxCell id="2HdnOW5wauHoBpMCBvDK-21" value="" style="rounded=0;whiteSpace=wrap;html=1;" vertex="1" parent="1">
          <mxGeometry x="270" y="730" width="360" height="80" as="geometry" />
        </mxCell>
        <mxCell id="2HdnOW5wauHoBpMCBvDK-22" value="小程序" style="rounded=0;whiteSpace=wrap;html=1;" vertex="1" parent="1">
          <mxGeometry x="650" y="730" width="70" height="80" as="geometry" />
        </mxCell>
        <mxCell id="2HdnOW5wauHoBpMCBvDK-23" value="菜品分类" style="rounded=0;whiteSpace=wrap;html=1;" vertex="1" parent="1">
          <mxGeometry x="280" y="130" width="100" height="40" as="geometry" />
        </mxCell>
        <mxCell id="2HdnOW5wauHoBpMCBvDK-24" value="菜品管理" style="rounded=0;whiteSpace=wrap;html=1;" vertex="1" parent="1">
          <mxGeometry x="406" y="130" width="100" height="40" as="geometry" />
        </mxCell>
        <mxCell id="2HdnOW5wauHoBpMCBvDK-26" value="顾客管理" style="rounded=0;whiteSpace=wrap;html=1;" vertex="1" parent="1">
          <mxGeometry x="280" y="190" width="100" height="40" as="geometry" />
        </mxCell>
        <mxCell id="2HdnOW5wauHoBpMCBvDK-27" value="统计分析" style="rounded=0;whiteSpace=wrap;html=1;" vertex="1" parent="1">
          <mxGeometry x="280" y="250" width="100" height="40" as="geometry" />
        </mxCell>
        <mxCell id="2HdnOW5wauHoBpMCBvDK-31" value="系统监控" style="rounded=0;whiteSpace=wrap;html=1;" vertex="1" parent="1">
          <mxGeometry x="530" y="250" width="90" height="40" as="geometry" />
        </mxCell>
        <mxCell id="2HdnOW5wauHoBpMCBvDK-32" value="推荐菜品展示" style="rounded=0;whiteSpace=wrap;html=1;" vertex="1" parent="1">
          <mxGeometry x="280" y="340" width="100" height="40" as="geometry" />
        </mxCell>
        <mxCell id="2HdnOW5wauHoBpMCBvDK-33" value="浏览菜品" style="rounded=0;whiteSpace=wrap;html=1;" vertex="1" parent="1">
          <mxGeometry x="406" y="340" width="100" height="40" as="geometry" />
        </mxCell>
        <mxCell id="2HdnOW5wauHoBpMCBvDK-34" value="购物车" style="rounded=0;whiteSpace=wrap;html=1;" vertex="1" parent="1">
          <mxGeometry x="530" y="340" width="90" height="40" as="geometry" />
        </mxCell>
        <mxCell id="2HdnOW5wauHoBpMCBvDK-35" value="下单" style="rounded=0;whiteSpace=wrap;html=1;" vertex="1" parent="1">
          <mxGeometry x="280" y="400" width="100" height="40" as="geometry" />
        </mxCell>
        <mxCell id="2HdnOW5wauHoBpMCBvDK-36" value="支付" style="rounded=0;whiteSpace=wrap;html=1;" vertex="1" parent="1">
          <mxGeometry x="406" y="400" width="100" height="40" as="geometry" />
        </mxCell>
        <mxCell id="2HdnOW5wauHoBpMCBvDK-40" value="个人信息" style="rounded=0;whiteSpace=wrap;html=1;" vertex="1" parent="1">
          <mxGeometry x="530" y="460" width="90" height="40" as="geometry" />
        </mxCell>
        <mxCell id="2HdnOW5wauHoBpMCBvDK-41" value="SpringBoot" style="rounded=0;whiteSpace=wrap;html=1;" vertex="1" parent="1">
          <mxGeometry x="280" y="570" width="100" height="40" as="geometry" />
        </mxCell>
        <mxCell id="2HdnOW5wauHoBpMCBvDK-42" value="SpringSecurity" style="rounded=0;whiteSpace=wrap;html=1;" vertex="1" parent="1">
          <mxGeometry x="406" y="570" width="100" height="40" as="geometry" />
        </mxCell>
        <mxCell id="2HdnOW5wauHoBpMCBvDK-43" value="Mybatis-Plus" style="rounded=0;whiteSpace=wrap;html=1;" vertex="1" parent="1">
          <mxGeometry x="530" y="570" width="90" height="40" as="geometry" />
        </mxCell>
        <mxCell id="2HdnOW5wauHoBpMCBvDK-44" value="JWT" style="rounded=0;whiteSpace=wrap;html=1;" vertex="1" parent="1">
          <mxGeometry x="280" y="620" width="100" height="40" as="geometry" />
        </mxCell>
        <mxCell id="2HdnOW5wauHoBpMCBvDK-45" value="Druid" style="rounded=0;whiteSpace=wrap;html=1;" vertex="1" parent="1">
          <mxGeometry x="406" y="620" width="100" height="40" as="geometry" />
        </mxCell>
        <mxCell id="2HdnOW5wauHoBpMCBvDK-46" value="Hutool" style="rounded=0;whiteSpace=wrap;html=1;" vertex="1" parent="1">
          <mxGeometry x="530" y="620" width="90" height="40" as="geometry" />
        </mxCell>
        <mxCell id="2HdnOW5wauHoBpMCBvDK-49" value="Knife4j" style="rounded=0;whiteSpace=wrap;html=1;" vertex="1" parent="1">
          <mxGeometry x="530" y="670" width="90" height="40" as="geometry" />
        </mxCell>
        <mxCell id="2HdnOW5wauHoBpMCBvDK-50" value="uni-app" style="rounded=0;whiteSpace=wrap;html=1;" vertex="1" parent="1">
          <mxGeometry x="280" y="750" width="100" height="40" as="geometry" />
        </mxCell>
        <mxCell id="2HdnOW5wauHoBpMCBvDK-51" value="uni-ui" style="rounded=0;whiteSpace=wrap;html=1;" vertex="1" parent="1">
          <mxGeometry x="406" y="750" width="100" height="40" as="geometry" />
        </mxCell>
        <mxCell id="2HdnOW5wauHoBpMCBvDK-52" value="tuniao-ui" style="rounded=0;whiteSpace=wrap;html=1;" vertex="1" parent="1">
          <mxGeometry x="530" y="750" width="90" height="40" as="geometry" />
        </mxCell>
        <mxCell id="2HdnOW5wauHoBpMCBvDK-65" value="" style="group" vertex="1" connectable="0" parent="1">
          <mxGeometry x="270" y="820" width="360" height="160" as="geometry" />
        </mxCell>
        <mxCell id="2HdnOW5wauHoBpMCBvDK-15" value="" style="rounded=0;whiteSpace=wrap;html=1;movable=1;resizable=1;rotatable=1;deletable=1;editable=1;locked=0;connectable=1;" vertex="1" parent="2HdnOW5wauHoBpMCBvDK-65">
          <mxGeometry width="360" height="160" as="geometry" />
        </mxCell>
        <mxCell id="2HdnOW5wauHoBpMCBvDK-56" value="Vue" style="rounded=0;whiteSpace=wrap;html=1;movable=1;resizable=1;rotatable=1;deletable=1;editable=1;locked=0;connectable=1;" vertex="1" parent="2HdnOW5wauHoBpMCBvDK-65">
          <mxGeometry x="10" y="10" width="100" height="40" as="geometry" />
        </mxCell>
        <mxCell id="2HdnOW5wauHoBpMCBvDK-57" value="Vite" style="rounded=0;whiteSpace=wrap;html=1;movable=1;resizable=1;rotatable=1;deletable=1;editable=1;locked=0;connectable=1;" vertex="1" parent="2HdnOW5wauHoBpMCBvDK-65">
          <mxGeometry x="136" y="10" width="100" height="40" as="geometry" />
        </mxCell>
        <mxCell id="2HdnOW5wauHoBpMCBvDK-58" value="vue-router" style="rounded=0;whiteSpace=wrap;html=1;movable=1;resizable=1;rotatable=1;deletable=1;editable=1;locked=0;connectable=1;" vertex="1" parent="2HdnOW5wauHoBpMCBvDK-65">
          <mxGeometry x="260" y="10" width="90" height="40" as="geometry" />
        </mxCell>
        <mxCell id="2HdnOW5wauHoBpMCBvDK-59" value="Pinia" style="rounded=0;whiteSpace=wrap;html=1;movable=1;resizable=1;rotatable=1;deletable=1;editable=1;locked=0;connectable=1;" vertex="1" parent="2HdnOW5wauHoBpMCBvDK-65">
          <mxGeometry x="10" y="60" width="100" height="40" as="geometry" />
        </mxCell>
        <mxCell id="2HdnOW5wauHoBpMCBvDK-60" value="Axios" style="rounded=0;whiteSpace=wrap;html=1;movable=1;resizable=1;rotatable=1;deletable=1;editable=1;locked=0;connectable=1;" vertex="1" parent="2HdnOW5wauHoBpMCBvDK-65">
          <mxGeometry x="136" y="60" width="100" height="40" as="geometry" />
        </mxCell>
        <mxCell id="2HdnOW5wauHoBpMCBvDK-61" value="Element-Plus" style="rounded=0;whiteSpace=wrap;html=1;movable=1;resizable=1;rotatable=1;deletable=1;editable=1;locked=0;connectable=1;" vertex="1" parent="2HdnOW5wauHoBpMCBvDK-65">
          <mxGeometry x="260" y="60" width="90" height="40" as="geometry" />
        </mxCell>
        <mxCell id="2HdnOW5wauHoBpMCBvDK-62" value="iconify" style="rounded=0;whiteSpace=wrap;html=1;movable=1;resizable=1;rotatable=1;deletable=1;editable=1;locked=0;connectable=1;" vertex="1" parent="2HdnOW5wauHoBpMCBvDK-65">
          <mxGeometry x="10" y="110" width="100" height="40" as="geometry" />
        </mxCell>
        <mxCell id="2HdnOW5wauHoBpMCBvDK-63" value="Echarts" style="rounded=0;whiteSpace=wrap;html=1;movable=1;resizable=1;rotatable=1;deletable=1;editable=1;locked=0;connectable=1;" vertex="1" parent="2HdnOW5wauHoBpMCBvDK-65">
          <mxGeometry x="136" y="110" width="100" height="40" as="geometry" />
        </mxCell>
        <mxCell id="2HdnOW5wauHoBpMCBvDK-64" value="nprogress" style="rounded=0;whiteSpace=wrap;html=1;movable=1;resizable=1;rotatable=1;deletable=1;editable=1;locked=0;connectable=1;" vertex="1" parent="2HdnOW5wauHoBpMCBvDK-65">
          <mxGeometry x="260" y="110" width="90" height="40" as="geometry" />
        </mxCell>
      </root>
    </mxGraphModel>
  </diagram>
</mxfile>
